<svg width="300" height="400" viewBox="0 0 300 400" fill="none" xmlns="http://www.w3.org/2000/svg">
  <defs>
    <linearGradient id="bg" x1="40" y1="24" x2="264" y2="372" gradientUnits="userSpaceOnUse">
      <stop stop-color="#ECEFF3"/>
      <stop offset="0.5" stop-color="#D8E0E8"/>
      <stop offset="1" stop-color="#C7D1DB"/>
    </linearGradient>
    <linearGradient id="figure" x1="150" y1="82" x2="150" y2="328" gradientUnits="userSpaceOnUse">
      <stop stop-color="#364457"/>
      <stop offset="1" stop-color="#1B2430"/>
    </linearGradient>
  </defs>
  <rect width="300" height="400" rx="34" fill="url(#bg)"/>
  <rect x="20" y="20" width="260" height="360" rx="28" fill="#FFFFFF" fill-opacity="0.28" stroke="#506178" stroke-opacity="0.1"/>
  <path d="M100 52V348" stroke="#8C9CAF" stroke-opacity="0.45" stroke-width="2" stroke-dasharray="5 7"/>
  <path d="M150 52V348" stroke="#7E8EA2" stroke-opacity="0.68" stroke-width="2.5"/>
  <path d="M200 52V348" stroke="#8C9CAF" stroke-opacity="0.45" stroke-width="2" stroke-dasharray="5 7"/>
  <path d="M54 110H246" stroke="#8C9CAF" stroke-opacity="0.34" stroke-width="2"/>
  <path d="M54 214H246" stroke="#8C9CAF" stroke-opacity="0.26" stroke-width="2"/>
  <path d="M54 318H246" stroke="#8C9CAF" stroke-opacity="0.22" stroke-width="2"/>
  <g fill="url(#figure)">
    <circle cx="100" cy="105" r="22"/>
    <rect x="83" y="129" width="34" height="86" rx="17"/>
    <rect x="71" y="156" width="12" height="74" rx="6"/>
    <rect x="117" y="156" width="12" height="74" rx="6"/>
    <rect x="86" y="214" width="11" height="94" rx="5.5"/>
    <rect x="103" y="214" width="11" height="94" rx="5.5"/>
  </g>
  <g fill="url(#figure)">
    <circle cx="150" cy="105" r="22"/>
    <rect x="131" y="129" width="38" height="88" rx="18"/>
    <rect x="117" y="150" width="14" height="82" rx="7"/>
    <rect x="169" y="150" width="14" height="82" rx="7"/>
    <rect x="136" y="216" width="12" height="96" rx="6"/>
    <rect x="152" y="216" width="12" height="96" rx="6"/>
  </g>
  <g fill="url(#figure)">
    <ellipse cx="200" cy="105" rx="18" ry="22"/>
    <rect x="186" y="129" width="28" height="88" rx="14"/>
    <rect x="176" y="156" width="10" height="72" rx="5"/>
    <rect x="214" y="156" width="10" height="72" rx="5"/>
    <rect x="190" y="216" width="9" height="94" rx="4.5"/>
    <rect x="201" y="216" width="9" height="94" rx="4.5"/>
  </g>
  <circle cx="150" cy="70" r="12" fill="#FFFFFF" fill-opacity="0.78"/>
  <path d="M132 338H168" stroke="#7F90A4" stroke-width="3" stroke-linecap="round"/>
</svg>
