<svg width="300" height="400" viewBox="0 0 300 400" fill="none" xmlns="http://www.w3.org/2000/svg">
  <defs>
    <linearGradient id="bg" x1="34" y1="28" x2="250" y2="376" gradientUnits="userSpaceOnUse">
      <stop stop-color="#1A1B30"/>
      <stop offset="0.45" stop-color="#241C2D"/>
      <stop offset="1" stop-color="#090C16"/>
    </linearGradient>
    <radialGradient id="core" cx="0" cy="0" r="1" gradientUnits="userSpaceOnUse" gradientTransform="translate(151 154) rotate(90) scale(94 118)">
      <stop stop-color="#FFD8A8" stop-opacity="0.95"/>
      <stop offset="0.38" stop-color="#FF9C57" stop-opacity="0.72"/>
      <stop offset="1" stop-color="#FF9C57" stop-opacity="0"/>
    </radialGradient>
    <linearGradient id="beamL" x1="113" y1="86" x2="68" y2="266" gradientUnits="userSpaceOnUse">
      <stop stop-color="#FFE8BF" stop-opacity="0.86"/>
      <stop offset="1" stop-color="#FFE8BF" stop-opacity="0"/>
    </linearGradient>
    <linearGradient id="beamR" x1="186" y1="86" x2="231" y2="266" gradientUnits="userSpaceOnUse">
      <stop stop-color="#FFE8BF" stop-opacity="0.86"/>
      <stop offset="1" stop-color="#FFE8BF" stop-opacity="0"/>
    </linearGradient>
  </defs>
  <rect width="300" height="400" rx="34" fill="url(#bg)"/>
  <rect x="20" y="20" width="260" height="360" rx="28" fill="#06070C" fill-opacity="0.18" stroke="white" stroke-opacity="0.08"/>
  <ellipse cx="150" cy="154" rx="92" ry="94" fill="url(#core)"/>
  <path d="M96 82L48 282H108L144 82H96Z" fill="url(#beamL)"/>
  <path d="M204 82L156 82L192 282H252L204 82Z" fill="url(#beamR)"/>
  <path d="M88 298C105 284 125 276 150 276C175 276 195 284 212 298L224 340H76L88 298Z" fill="#161D29" fill-opacity="0.9"/>
  <path d="M104 250C119 235 132 202 136 170H164C168 202 181 235 196 250C214 268 236 273 248 280L218 312C199 302 183 291 170 278C160 267 154 256 150 244C146 256 140 267 130 278C117 291 101 302 82 312L52 280C64 273 86 268 104 250Z" fill="#0E121B"/>
  <circle cx="150" cy="152" r="18" fill="#FFF3D9" fill-opacity="0.94"/>
  <circle cx="150" cy="152" r="8" fill="#FFFFFF"/>
  <g fill="#FFB169" fill-opacity="0.8">
    <circle cx="92" cy="198" r="2.5"/>
    <circle cx="78" cy="230" r="2"/>
    <circle cx="212" cy="205" r="2.5"/>
    <circle cx="224" cy="236" r="2"/>
    <circle cx="130" cy="108" r="2"/>
    <circle cx="168" cy="103" r="2"/>
  </g>
  <path d="M62 340C102 320 126 312 150 312C174 312 198 320 238 340" stroke="#FFC483" stroke-opacity="0.34" stroke-width="3" stroke-linecap="round"/>
</svg>
