<svg width="300" height="400" viewBox="0 0 300 400" fill="none" xmlns="http://www.w3.org/2000/svg">
  <defs>
    <linearGradient id="bg" x1="32" y1="24" x2="260" y2="376" gradientUnits="userSpaceOnUse">
      <stop stop-color="#0F2747"/>
      <stop offset="0.55" stop-color="#132A4A"/>
      <stop offset="1" stop-color="#08121F"/>
    </linearGradient>
    <linearGradient id="sky" x1="150" y1="70" x2="150" y2="210" gradientUnits="userSpaceOnUse">
      <stop stop-color="#C6E8FF"/>
      <stop offset="0.55" stop-color="#5F9DCB"/>
      <stop offset="1" stop-color="#23496E"/>
    </linearGradient>
    <linearGradient id="ground" x1="150" y1="238" x2="150" y2="330" gradientUnits="userSpaceOnUse">
      <stop stop-color="#355E67"/>
      <stop offset="1" stop-color="#102231"/>
    </linearGradient>
    <radialGradient id="glow" cx="0" cy="0" r="1" gradientUnits="userSpaceOnUse" gradientTransform="translate(150 112) rotate(90) scale(72 122)">
      <stop stop-color="#F4FBFF" stop-opacity="0.78"/>
      <stop offset="1" stop-color="#F4FBFF" stop-opacity="0"/>
    </radialGradient>
  </defs>
  <rect width="300" height="400" rx="34" fill="url(#bg)"/>
  <rect x="20" y="20" width="260" height="360" rx="28" fill="#0A1625" fill-opacity="0.2" stroke="white" stroke-opacity="0.08"/>
  <ellipse cx="150" cy="162" rx="112" ry="92" fill="url(#glow)"/>
  <path d="M46 218C74 194 112 182 150 182C188 182 226 194 254 218V236H46V218Z" fill="url(#sky)"/>
  <path d="M52 236C82 252 116 260 150 260C184 260 218 252 248 236V292H52V236Z" fill="url(#ground)"/>
  <path d="M50 236C82 224 116 218 150 218C184 218 218 224 250 236" stroke="#D5F3FF" stroke-opacity="0.92" stroke-width="4" stroke-linecap="round"/>
  <path d="M66 250C92 260 121 266 150 266C179 266 208 260 234 250" stroke="#7ED4F5" stroke-opacity="0.78" stroke-width="3" stroke-linecap="round"/>
  <path d="M83 202C101 191 125 186 150 186C175 186 199 191 217 202" stroke="#F7FCFF" stroke-opacity="0.85" stroke-width="3" stroke-linecap="round"/>
  <circle cx="150" cy="120" r="22" fill="#F8FCFF" fill-opacity="0.25"/>
  <circle cx="150" cy="120" r="12" fill="#F9FEFF" fill-opacity="0.88"/>
  <path d="M84 305C101 287 124 276 150 276C176 276 199 287 216 305" stroke="#D5F3FF" stroke-opacity="0.66" stroke-width="3" stroke-linecap="round"/>
  <path d="M56 318C83 339 116 350 150 350C184 350 217 339 244 318" stroke="#9ADAF0" stroke-opacity="0.38" stroke-width="2.5" stroke-linecap="round"/>
</svg>
